<svg width="42" height="26" viewBox="0 0 42 26" fill="none" xmlns="http://www.w3.org/2000/svg">
<path d="M10.7902 8.68091H6.70654V23.7314H10.7902V8.68091Z" fill="#149EC2"/>
<path d="M39.5428 14.1737C38.4097 13.2 36.7651 12.4109 34.6066 11.8064C33.1951 11.3348 32.2013 10.8886 31.6264 10.4666C31.0514 10.0446 30.7634 9.50449 30.7634 8.8462C30.7634 8.12567 31.0282 7.53489 31.5588 7.07282C32.0895 6.61075 32.8396 6.37972 33.8112 6.37972C34.8809 6.37972 35.7122 6.63924 36.3061 7.15933C36.899 7.67942 37.1965 8.42422 37.1965 9.39267H41.0134L41.0408 9.31249C41.0862 7.55283 40.4447 6.12969 39.1187 5.0452C37.7926 3.9607 36.0414 3.41846 33.866 3.41846C31.8163 3.41846 30.1304 3.92273 28.8086 4.93232C28.3085 5.31421 27.9034 5.73725 27.5922 6.20248C27.3074 5.78156 26.9497 5.3965 26.5214 5.04625C25.1954 3.96176 23.4441 3.41951 21.2688 3.41951C21.0916 3.41951 20.9175 3.42373 20.7456 3.43112H16.781V3.42901H1.70361V6.4293H6.75685L12.4715 6.42824L14.8536 6.4293C14.4369 7.13928 14.2291 7.94 14.2291 8.83354C14.2291 10.416 14.8157 11.665 15.9888 12.5807C17.1619 13.4964 18.8815 14.2919 21.1475 14.9671C22.4694 15.3669 23.3924 15.7941 23.9189 16.2467C24.4442 16.7003 24.708 17.3006 24.708 18.0465C24.708 18.7923 24.4316 19.3578 23.8788 19.7935C23.326 20.2292 22.5232 20.4465 21.4714 20.4465C20.3025 20.4465 19.3762 20.1754 18.6937 19.6331C18.0101 19.0909 17.6683 18.2459 17.6683 17.0991H13.8514L13.824 17.1793C13.7786 19.2417 14.5139 20.7925 16.0289 21.8327C17.5438 22.8729 19.3572 23.393 21.4703 23.393C23.5834 23.393 25.3631 22.913 26.6755 21.953C27.0669 21.6671 27.3992 21.3495 27.6734 21.0014C27.9456 21.3084 28.2632 21.5848 28.624 21.8327C30.1389 22.8729 31.9523 23.393 34.0654 23.393C36.1785 23.393 37.9582 22.913 39.2706 21.953C40.5829 20.993 41.2391 19.6816 41.2391 18.019C41.2391 16.3564 40.6726 15.1453 39.5396 14.1716L39.5428 14.1737ZM36.4749 19.7945C35.9221 20.2302 35.1193 20.4475 34.0675 20.4475C32.8986 20.4475 31.9724 20.1764 31.2898 19.6342C30.6062 19.0919 30.2655 18.2469 30.2655 17.1002H28.5786C28.3971 15.9271 27.8538 14.9512 26.9476 14.1737C25.8146 13.2 24.1699 12.4109 22.0115 11.8064C20.6 11.3348 19.6062 10.8886 19.0313 10.4666C18.4563 10.0446 18.1683 9.50449 18.1683 8.8462C18.1683 8.12567 18.4331 7.53489 18.9637 7.07282C19.4944 6.61075 20.2445 6.37972 21.2161 6.37972C22.2858 6.37972 23.1171 6.63924 23.711 7.15933C24.3039 7.67942 24.6014 8.42422 24.6014 9.39267H26.8527C26.9772 10.7124 27.5553 11.7748 28.587 12.5797C29.7602 13.4954 31.4797 14.2908 33.7458 14.966C35.0676 15.3658 35.9907 15.7931 36.5171 16.2457C37.0425 16.6993 37.3062 17.2996 37.3062 18.0454C37.3062 18.7913 37.0298 19.3567 36.4771 19.7924L36.4749 19.7945Z" fill="#149EC2"/>
<path d="M10.8042 18.7046H6.67676V23.7006H10.8042V18.7046Z" fill="#149EC2"/>
<path d="M10.8042 13.6704H6.67676V18.6665H10.8042V13.6704Z" fill="#231F20"/>
</svg>
